HIERARCHY
ROOT Hips
{
	OFFSET -0.294200 87.861771 4.376322
	CHANNELS 6 Xposition Yposition Zposition Zrotation Yrotation Xrotation 
	JOINT Spine
	{
		OFFSET -0.000000 8.814246 -2.080107
		CHANNELS 3 Zrotation Yrotation Xrotation
		JOINT Spine1
		{
			OFFSET -0.000000 8.844141 0.000000
			CHANNELS 3 Zrotation Yrotation Xrotation
			JOINT Spine2
			{
				OFFSET 0.000000 11.682268 0.000000
				CHANNELS 3 Zrotation Yrotation Xrotation
				JOINT Spine3
				{
					OFFSET -0.000000 11.746700 0.000000
					CHANNELS 3 Zrotation Yrotation Xrotation
					JOINT Neck
					{
						OFFSET -0.000000 17.658264 0.000000
						CHANNELS 3 Zrotation Yrotation Xrotation
						JOINT Neck1
						{
							OFFSET 0.000000 5.101515 -0.000000
							CHANNELS 3 Zrotation Yrotation Xrotation
							JOINT Head
							{
								OFFSET -0.000000 5.101515 -0.000000
								CHANNELS 3 Zrotation Yrotation Xrotation
								JOINT HeadEnd
								{
									OFFSET 0.000000 11.655085 -0.000000
									CHANNELS 3 Zrotation Yrotation Xrotation
									End Site
									{
										OFFSET 0.000000 0.000000 0.000000
									}
								}
							}
						}
					}
					JOINT RightShoulder
					{
						OFFSET -2.625389 11.175210 -0.000000
						CHANNELS 3 Zrotation Yrotation Xrotation
						JOINT RightArm
						{
							OFFSET 0.000000 10.434715 -0.000000
							CHANNELS 3 Zrotation Yrotation Xrotation
							JOINT RightForeArm
							{
								OFFSET -0.000000 29.628420 0.000000
								CHANNELS 3 Zrotation Yrotation Xrotation
								JOINT RightHand
								{
									OFFSET -0.000000 22.857611 0.000000
									CHANNELS 3 Zrotation Yrotation Xrotation
									JOINT RightHandThumb1
									{
										OFFSET -2.867323 3.959563 2.944291
										CHANNELS 3 Zrotation Yrotation Xrotation
										JOINT RightHandThumb2
										{
											OFFSET -0.000000 3.350399 0.000000
											CHANNELS 3 Zrotation Yrotation Xrotation
											JOINT RightHandThumb3
											{
												OFFSET -0.000000 3.756509 -0.000000
												CHANNELS 3 Zrotation Yrotation Xrotation
												JOINT RightHandThumb4
												{
													OFFSET -0.000000 3.147345 0.000000
													CHANNELS 3 Zrotation Yrotation Xrotation
													End Site
													{
														OFFSET 0.000000 0.000000 0.000000
													}
												}
											}
										}
									}
									JOINT RightHandIndex1
									{
										OFFSET -0.086752 10.030893 2.345280
										CHANNELS 3 Zrotation Yrotation Xrotation
										JOINT RightHandIndex2
										{
											OFFSET 0.000000 4.061090 -0.000000
											CHANNELS 3 Zrotation Yrotation Xrotation
											JOINT RightHandIndex3
											{
												OFFSET 0.000000 3.248873 -0.000000
												CHANNELS 3 Zrotation Yrotation Xrotation
												JOINT RightHandIndex4
												{
													OFFSET 0.000000 2.639709 0.000000
													CHANNELS 3 Zrotation Yrotation Xrotation
													End Site
													{
														OFFSET 0.000000 0.000000 0.000000
													}
												}
											}
										}
									}
									JOINT RightHandMiddle1
									{
										OFFSET 0.104102 9.502952 0.006768
										CHANNELS 3 Zrotation Yrotation Xrotation
										JOINT RightHandMiddle2
										{
											OFFSET 0.000000 4.568727 0.000000
											CHANNELS 3 Zrotation Yrotation Xrotation
											JOINT RightHandMiddle3
											{
												OFFSET 0.000000 3.654981 -0.000000
												CHANNELS 3 Zrotation Yrotation Xrotation
												JOINT RightHandMiddle4
												{
													OFFSET -0.000000 2.741236 0.000000
													CHANNELS 3 Zrotation Yrotation Xrotation
													End Site
													{
														OFFSET 0.000000 0.000000 0.000000
													}
												}
											}
										}
									}
									JOINT RightHandRing1
									{
										OFFSET 0.086752 8.921708 -2.267442
										CHANNELS 3 Zrotation Yrotation Xrotation
										JOINT RightHandRing2
										{
											OFFSET 0.000000 4.061090 -0.000000
											CHANNELS 3 Zrotation Yrotation Xrotation
											JOINT RightHandRing3
											{
												OFFSET -0.000000 3.654981 0.000000
												CHANNELS 3 Zrotation Yrotation Xrotation
												JOINT RightHandRing4
												{
													OFFSET -0.000000 2.741236 0.000000
													CHANNELS 3 Zrotation Yrotation Xrotation
													End Site
													{
														OFFSET 0.000000 0.000000 0.000000
													}
												}
											}
										}
									}
									JOINT RightHandPinky1
									{
										OFFSET -0.173504 7.976997 -4.467199
										CHANNELS 3 Zrotation Yrotation Xrotation
										JOINT RightHandPinky2
										{
											OFFSET -0.000000 3.350399 0.000000
											CHANNELS 3 Zrotation Yrotation Xrotation
											JOINT RightHandPinky3
											{
												OFFSET 0.000000 2.842763 0.000000
												CHANNELS 3 Zrotation Yrotation Xrotation
												JOINT RightHandPinky4
												{
													OFFSET 0.000000 2.639709 0.000000
													CHANNELS 3 Zrotation Yrotation Xrotation
													End Site
													{
														OFFSET 0.000000 0.000000 0.000000
													}
												}
											}
										}
									}
									JOINT RightForeArmEnd
									{
										OFFSET 0.000000 0.000000 0.000000
										CHANNELS 3 Zrotation Yrotation Xrotation
										End Site
										{
											OFFSET 0.000000 0.000000 0.000000
										}
									}
								}
								JOINT RightArmEnd
								{
									OFFSET 0.000000 0.000000 0.000000
									CHANNELS 3 Zrotation Yrotation Xrotation
									End Site
									{
										OFFSET 0.000000 0.000000 0.000000
									}
								}
							}
						}
					}
					JOINT LeftShoulder
					{
						OFFSET 2.625389 11.175210 0.000000
						CHANNELS 3 Zrotation Yrotation Xrotation
						JOINT LeftArm
						{
							OFFSET -0.000000 10.813635 -0.000000
							CHANNELS 3 Zrotation Yrotation Xrotation
							JOINT LeftForeArm
							{
								OFFSET -0.000000 28.724781 -0.000000
								CHANNELS 3 Zrotation Yrotation Xrotation
								JOINT LeftHand
								{
									OFFSET 0.644384 25.716167 -0.328871
									CHANNELS 3 Zrotation Yrotation Xrotation
									JOINT LeftHandThumb1
									{
										OFFSET 2.867323 3.959563 2.944291
										CHANNELS 3 Zrotation Yrotation Xrotation
										JOINT LeftHandThumb2
										{
											OFFSET 0.000000 3.350399 0.000000
											CHANNELS 3 Zrotation Yrotation Xrotation
											JOINT LeftHandThumb3
											{
												OFFSET -0.000000 3.756509 -0.000000
												CHANNELS 3 Zrotation Yrotation Xrotation
												JOINT LeftHandThumb4
												{
													OFFSET 0.000000 3.100000 0.000000
													CHANNELS 3 Zrotation Yrotation Xrotation
													End Site
													{
														OFFSET 0.000000 0.000000 0.000000
													}
												}
											}
										}
									}
									JOINT LeftHandIndex1
									{
										OFFSET 0.086752 10.030893 2.345280
										CHANNELS 3 Zrotation Yrotation Xrotation
										JOINT LeftHandIndex2
										{
											OFFSET 0.000000 4.061090 0.000000
											CHANNELS 3 Zrotation Yrotation Xrotation
											JOINT LeftHandIndex3
											{
												OFFSET -0.000000 3.248873 -0.000000
												CHANNELS 3 Zrotation Yrotation Xrotation
												JOINT LeftHandIndex4
												{
													OFFSET 0.000000 2.639709 0.000000
													CHANNELS 3 Zrotation Yrotation Xrotation
													End Site
													{
														OFFSET 0.000000 0.000000 0.000000
													}
												}
											}
										}
									}
									JOINT LeftHandMiddle1
									{
										OFFSET -0.104102 9.502952 0.006768
										CHANNELS 3 Zrotation Yrotation Xrotation
										JOINT LeftHandMiddle2
										{
											OFFSET -0.000000 4.568727 -0.000000
											CHANNELS 3 Zrotation Yrotation Xrotation
											JOINT LeftHandMiddle3
											{
												OFFSET -0.000000 3.654981 -0.000000
												CHANNELS 3 Zrotation Yrotation Xrotation
												JOINT LeftHandMiddle4
												{
													OFFSET 0.000000 2.741236 0.000000
													CHANNELS 3 Zrotation Yrotation Xrotation
													End Site
													{
														OFFSET 0.000000 0.000000 0.000000
													}
												}
											}
										}
									}
									JOINT LeftHandRing1
									{
										OFFSET -0.086752 8.921708 -2.267442
										CHANNELS 3 Zrotation Yrotation Xrotation
										JOINT LeftHandRing2
										{
											OFFSET 0.000000 4.061090 0.000000
											CHANNELS 3 Zrotation Yrotation Xrotation
											JOINT LeftHandRing3
											{
												OFFSET 0.000000 3.654981 -0.000000
												CHANNELS 3 Zrotation Yrotation Xrotation
												JOINT LeftHandRing4
												{
													OFFSET -0.000000 2.741236 -0.000000
													CHANNELS 3 Zrotation Yrotation Xrotation
													End Site
													{
														OFFSET 0.000000 0.000000 0.000000
													}
												}
											}
										}
									}
									JOINT LeftHandPinky1
									{
										OFFSET 0.173504 7.976997 -4.467199
										CHANNELS 3 Zrotation Yrotation Xrotation
										JOINT LeftHandPinky2
										{
											OFFSET -0.000000 3.350399 -0.000000
											CHANNELS 3 Zrotation Yrotation Xrotation
											JOINT LeftHandPinky3
											{
												OFFSET 0.000000 2.842763 -0.000000
												CHANNELS 3 Zrotation Yrotation Xrotation
												JOINT LeftHandPinky4
												{
													OFFSET -0.000000 2.639709 -0.000000
													CHANNELS 3 Zrotation Yrotation Xrotation
													End Site
													{
														OFFSET 0.000000 0.000000 0.000000
													}
												}
											}
										}
									}
									JOINT LeftForeArmEnd
									{
										OFFSET 0.000000 0.000000 0.000000
										CHANNELS 3 Zrotation Yrotation Xrotation
										End Site
										{
											OFFSET 0.000000 0.000000 0.000000
										}
									}
								}
								JOINT LeftArmEnd
								{
									OFFSET 0.000000 0.000000 0.000000
									CHANNELS 3 Zrotation Yrotation Xrotation
									End Site
									{
										OFFSET 0.000000 0.000000 0.000000
									}
								}
							}
						}
					}
				}
			}
		}
	}
	JOINT RightUpLeg
	{
		OFFSET -11.289943 -0.000000 0.000000
		CHANNELS 3 Zrotation Yrotation Xrotation
		JOINT RightLeg
		{
			OFFSET 0.000000 -38.200325 -0.000000
			CHANNELS 3 Zrotation Yrotation Xrotation
			JOINT RightFoot
			{
				OFFSET -0.000000 -39.900856 0.000000
				CHANNELS 3 Zrotation Yrotation Xrotation
				JOINT RightToeBase
				{
					OFFSET 0.000000 0.000000 15.261641
					CHANNELS 3 Zrotation Yrotation Xrotation
					JOINT RightToeBaseEnd
					{
						OFFSET 0.000000 0.000000 7.370709
						CHANNELS 3 Zrotation Yrotation Xrotation
						End Site
						{
							OFFSET 0.000000 0.000000 0.000000
						}
					}
				}
				JOINT RightLegEnd
				{
					OFFSET 0.000000 0.000000 0.000000
					CHANNELS 3 Zrotation Yrotation Xrotation
					End Site
					{
						OFFSET 0.000000 0.000000 0.000000
					}
				}
			}
			JOINT RightUpLegEnd
			{
				OFFSET 0.000000 0.000000 0.000000
				CHANNELS 3 Zrotation Yrotation Xrotation
				End Site
				{
					OFFSET 0.000000 0.000000 0.000000
				}
			}
		}
	}
	JOINT LeftUpLeg
	{
		OFFSET 11.315661 0.000000 0.000000
		CHANNELS 3 Zrotation Yrotation Xrotation
		JOINT LeftLeg
		{
			OFFSET 0.000000 -38.200325 -0.000000
			CHANNELS 3 Zrotation Yrotation Xrotation
			JOINT LeftFoot
			{
				OFFSET 0.000000 -39.900856 -0.000000
				CHANNELS 3 Zrotation Yrotation Xrotation
				JOINT LeftToeBase
				{
					OFFSET 0.000000 -0.000000 15.261641
					CHANNELS 3 Zrotation Yrotation Xrotation
					JOINT LeftToeBaseEnd
					{
						OFFSET -0.000000 0.000000 7.539996
						CHANNELS 3 Zrotation Yrotation Xrotation
						End Site
						{
							OFFSET 0.000000 0.000000 0.000000
						}
					}
				}
				JOINT LeftLegEnd
				{
					OFFSET 0.000000 0.000000 0.000000
					CHANNELS 3 Zrotation Yrotation Xrotation
					End Site
					{
						OFFSET 0.000000 0.000000 0.000000
					}
				}
			}
			JOINT LeftUpLegEnd
			{
				OFFSET 0.000000 0.000000 0.000000
				CHANNELS 3 Zrotation Yrotation Xrotation
				End Site
				{
					OFFSET 0.000000 0.000000 0.000000
				}
			}
		}
	}
}
MOTION
Frames: 5
Frame Time: 0.016667
-0.294200 87.861771 4.376322 1.323909 0.247506 -10.587364 -2.183064 0.609536 6.425947 -0.795255 0.805788 3.826181 1.088412 3.471150 4.820115 1.057585 1.442386 5.669248 -6.999455 1.468381 2.686141 0.788411 -0.654826 -4.494670 0.604285 0.020978 -16.816629 0.000000 0.000000 0.000000 86.314827 -0.065258 9.089411 64.389961 -17.884295 6.274988 -0.349699 9.540284 42.239494 1.357906 8.918724 -6.559522 11.226879 -1.830230 39.678143 0.000013 0.000008 -27.699308 -0.000010 0.000036 -19.200731 0.000007 -0.000009 -0.000006 13.733371 17.395355 -10.522260 11.432793 -0.575068 -2.969741 11.377031 0.446447 -2.761642 0.000003 0.000012 -0.000003 14.987411 7.191331 -10.648249 11.740018 -0.813086 -1.254774 11.686523 0.167174 -1.075293 0.000014 -0.000064 0.000014 22.332470 -9.158596 -10.643634 13.851442 1.727218 1.851807 13.671195 -0.248992 1.409147 -0.000004 -0.001529 0.000012 27.622568 -25.685751 -11.878511 14.140203 3.158878 5.670270 13.952773 -0.760272 4.761274 0.001309 0.000002 -0.000026 0.000000 0.000000 0.000000 0.000000 0.000000 0.000000 -87.615547 0.776925 8.662038 -58.973194 25.830133 -0.819292 -1.258327 -13.055984 52.960495 -5.189774 -1.835478 -11.623575 -11.493109 1.975615 39.446564 -0.000020 0.000013 -28.076591 -0.000052 -0.000005 -19.596502 -0.000816 -0.000016 -0.000621 -19.139717 16.845169 -8.305798 -10.976923 -0.597674 2.985877 -11.478729 0.373948 2.790347 0.000031 -0.000790 0.000019 -17.459084 6.970645 -8.813331 -11.005606 -0.840792 1.201007 -11.070930 0.134875 1.044832 0.000409 -0.000049 -0.000218 -17.324997 -8.808354 -8.670738 -12.145687 1.746581 -1.763384 -12.090447 -0.190150 -1.325606 -0.000649 0.000009 0.000000 -14.896065 -25.200287 -11.383144 -11.523225 3.353432 -4.998619 -11.724021 -0.541620 -4.154802 0.000829 -0.000001 -0.000044 0.000000 0.000000 0.000000 0.000000 0.000000 0.000000 -10.566369 5.444161 4.779820 -0.347209 -1.101178 17.722431 3.680956 -2.176866 17.200907 -0.997864 0.636818 -21.297253 0.000000 0.000000 0.000000 0.000000 0.000000 0.000000 0.000000 0.000000 0.000000 -0.838495 8.740839 11.761677 0.065127 0.448714 8.998993 2.658210 10.351229 17.010689 0.460197 -0.911847 -19.935081 0.000000 0.000000 0.000000 0.000000 0.000000 0.000000 0.000000 0.000000 0.000000 
-0.296819 87.898048 4.000135 2.212902 0.877885 -11.451779 -3.357471 0.848557 7.820483 -0.818296 0.600964 4.568840 1.032412 3.163329 4.413867 1.171906 1.313593 4.596485 -6.486870 3.205762 2.737847 0.696046 0.981480 -4.072151 -0.011679 -0.001159 -16.258131 0.000000 0.000000 0.000000 87.328949 1.019191 9.704972 63.114300 -18.196209 5.591869 0.228457 9.988873 44.461964 -0.365264 8.862558 -8.101007 11.306490 -1.902085 39.564972 0.000003 0.000002 -27.825987 -0.000015 0.000034 -19.281107 -0.000000 0.000002 -0.000006 14.816316 17.401430 -8.964947 11.662566 -0.597608 -3.174608 11.769156 0.410423 -2.975108 -0.000002 0.000008 -0.000013 16.002069 7.166530 -9.722981 11.755104 -0.842027 -1.310063 11.880852 0.153700 -1.119968 0.000014 0.000008 0.000018 22.653330 -9.252103 -10.072061 14.102714 1.767304 1.868635 14.002194 -0.215741 1.453201 -0.000003 -0.000169 0.000006 28.212620 -26.146053 -11.963968 14.450483 3.260124 5.530404 14.159202 -0.704224 4.688640 -0.000044 0.000006 0.000023 0.000000 0.000000 0.000000 0.000000 0.000000 0.000000 -86.803101 -0.347911 9.485357 -58.794628 26.828682 -2.698169 -1.261293 -15.907456 53.914326 -6.488473 -0.960258 -10.533141 -11.731636 1.935068 39.391315 0.000005 0.000005 -28.474833 -0.000055 -0.000013 -19.846504 -0.000619 -0.000000 0.001451 -20.427980 17.359217 -7.353381 -11.717669 -0.572797 3.462919 -11.876178 0.412401 3.253551 0.000007 0.000207 0.000011 -18.817919 7.139068 -8.628048 -11.671418 -0.854913 1.359157 -11.523803 0.140339 1.160778 0.000835 -0.000040 0.000019 -18.511166 -9.120064 -9.125031 -12.765517 1.790779 -1.857987 -12.724497 -0.183944 -1.434145 0.000304 0.000006 -0.000004 -15.723830 -26.286026 -11.937662 -12.559817 3.445771 -5.023110 -12.526037 -0.529092 -4.258688 -0.000313 -0.000000 -0.000039 0.000000 0.000000 0.000000 0.000000 0.000000 0.000000 -11.082487 4.329432 5.204709 -0.370269 -0.957641 18.399546 5.224494 -0.311774 17.533802 -1.069210 0.942128 -21.691948 0.000000 0.000000 0.000000 0.000000 0.000000 0.000000 0.000000 0.000000 0.000000 -2.237917 9.744119 11.806787 0.050499 0.432371 9.211472 3.374354 10.258746 17.246162 0.206819 -1.033331 -18.438612 0.000000 0.000000 0.000000 0.000000 0.000000 0.000000 0.000000 0.000000 0.000000 
-0.292693 87.892845 3.941578 2.235244 0.929199 -11.440556 -3.355036 0.858653 7.777913 -0.707084 0.589265 4.691537 1.055174 3.309716 4.091430 1.142008 1.369127 4.621960 -6.370784 3.356576 2.545532 0.718970 1.051374 -4.028360 0.028237 0.067328 -16.173681 0.000000 0.000000 0.000000 87.061951 1.124932 9.697094 63.039227 -17.818081 5.645154 0.120504 10.288207 46.009220 -1.006726 8.465888 -7.643548 11.232040 -1.884422 39.616268 0.000004 0.000006 -27.653080 -0.000021 0.000034 -19.158850 0.000008 0.000003 -0.000008 14.714810 17.426182 -8.036758 11.624446 -0.594207 -3.156133 11.724833 0.413166 -2.958249 0.000004 0.000012 -0.000009 15.917070 7.176213 -8.966334 11.727568 -0.840951 -1.304717 11.861971 0.155723 -1.114588 0.000015 -0.000002 0.000015 22.691914 -9.270053 -9.555773 14.134996 1.766394 1.869278 14.039150 -0.218666 1.453481 -0.000006 0.000004 0.000003 28.446970 -26.143923 -11.781434 14.552559 3.253527 5.564897 14.245046 -0.711261 4.711569 0.000037 0.000011 0.000017 0.000000 0.000000 0.000000 0.000000 0.000000 0.000000 -86.669647 -0.338750 9.486377 -58.970982 25.821453 -2.841209 -1.163212 -16.190058 55.656830 -6.464071 -0.655924 -10.302926 -11.769966 1.932023 39.380951 0.000006 0.000007 -28.589754 -0.000066 -0.000009 -19.916973 -0.000511 0.000007 0.001597 -20.999670 17.364225 -7.404935 -12.118481 -0.570214 3.452821 -12.289699 0.415006 3.240027 0.000012 0.000155 0.000013 -19.337938 7.140979 -8.668813 -12.070640 -0.853398 1.353547 -11.934396 0.141146 1.158148 0.001014 -0.000037 -0.000004 -19.063076 -9.127088 -9.200323 -13.233735 1.786328 -1.869779 -13.180438 -0.186795 -1.442196 0.000258 0.000012 -0.000001 -16.252846 -26.316591 -11.978809 -12.970467 3.434933 -5.076438 -12.941786 -0.538316 -4.297007 -0.000352 0.000010 -0.000046 0.000000 0.000000 0.000000 0.000000 0.000000 0.000000 -11.123868 4.211750 5.035458 -0.370347 -0.954459 18.598310 5.200854 -0.544275 17.494318 -1.102746 0.932672 -21.712265 0.000000 0.000000 0.000000 0.000000 0.000000 0.000000 0.000000 0.000000 0.000000 -2.221359 9.920582 11.564772 0.047817 0.419774 9.288691 3.404431 10.227830 17.379448 0.195001 -1.029876 -18.376892 0.000000 0.000000 0.000000 0.000000 0.000000 0.000000 0.000000 0.000000 0.000000 
-0.296265 87.895638 3.898492 2.312358 0.944924 -11.408965 -3.335244 0.857755 7.747322 -0.608059 0.578505 4.700885 1.038182 3.520781 3.859568 1.101765 1.446746 4.612952 -6.304441 3.467531 2.324211 0.739841 1.096588 -4.050064 0.067009 0.100772 -16.191298 0.000000 0.000000 0.000000 86.875900 1.192588 9.678819 62.955647 -17.331430 5.697174 0.035444 10.793778 47.661659 -1.658105 8.107772 -7.448595 11.085179 -1.864467 39.691120 0.000004 0.000004 -27.313528 -0.000024 0.000035 -18.914873 0.000007 0.000003 -0.000007 14.367328 17.425194 -6.962683 11.286139 -0.594558 -3.108385 11.382015 0.411658 -2.914711 0.000004 0.000010 -0.000008 15.567373 7.180644 -8.148376 11.421611 -0.842155 -1.290203 11.552117 0.156660 -1.101667 0.000013 -0.000007 0.000016 22.403526 -9.283200 -9.026402 13.898020 1.767982 1.859349 13.799387 -0.219881 1.445696 -0.000004 0.000141 0.000004 28.374681 -26.129230 -11.620245 14.427461 3.250781 5.578395 14.103486 -0.715967 4.718986 0.000102 0.000011 0.000013 0.000000 0.000000 0.000000 0.000000 0.000000 0.000000 -86.628349 -0.303316 9.359130 -59.072254 24.620966 -3.014539 -1.045468 -16.552311 57.947063 -6.449440 -0.083208 -9.923093 -11.885446 1.938582 39.328434 0.000005 0.000005 -28.912718 -0.000065 -0.000009 -20.131744 -0.000478 0.000005 0.001753 -21.961189 17.371616 -7.588354 -12.761520 -0.565234 3.439588 -12.944874 0.420034 3.224622 0.000010 0.000196 0.000015 -20.183086 7.147179 -8.782437 -12.718476 -0.850994 1.348556 -12.593678 0.142810 1.154676 0.001042 -0.000037 -0.000011 -19.842237 -9.143667 -9.333920 -13.919375 1.781770 -1.881604 -13.844967 -0.190274 -1.450976 0.000180 0.000012 -0.000001 -16.938503 -26.362988 -11.998586 -13.530734 3.422841 -5.125628 -13.517501 -0.549054 -4.331624 -0.000337 0.000010 -0.000047 0.000000 0.000000 0.000000 0.000000 0.000000 0.000000 -11.152854 4.230649 4.972316 -0.368214 -0.949893 18.667700 5.139802 -0.666810 17.365646 -1.130896 0.918501 -21.712540 0.000000 0.000000 0.000000 0.000000 0.000000 0.000000 0.000000 0.000000 0.000000 -2.241015 10.042458 11.372092 0.042856 0.411338 9.304556 3.394578 10.245394 17.522432 0.195808 -1.027211 -18.376820 0.000000 0.000000 0.000000 0.000000 0.000000 0.000000 0.000000 0.000000 0.000000 
-0.302038 87.909149 3.873116 2.419434 0.939834 -11.412419 -3.295193 0.847906 7.739743 -0.501826 0.566013 4.649698 0.977851 3.751695 3.721942 1.057021 1.529434 4.610310 -6.264679 3.614289 2.088125 0.755919 1.196364 -4.127216 0.088272 0.120138 -16.303289 0.000000 0.000000 0.000000 86.748505 1.204881 9.622639 62.856030 -16.880714 5.678675 -0.016976 11.249055 49.326733 -2.237684 8.017862 -7.352868 10.818748 -1.837032 39.812798 0.000004 0.000002 -26.687542 -0.000026 0.000035 -18.472237 0.000006 0.000002 -0.000005 13.515120 17.405521 -5.813242 10.507462 -0.595606 -3.046128 10.592093 0.409631 -2.859449 0.000004 0.000008 -0.000007 14.740613 7.176647 -7.333245 10.679470 -0.843970 -1.270322 10.803039 0.157175 -1.084826 0.000012 -0.000006 0.000017 21.670195 -9.281722 -8.593693 13.256912 1.770424 1.849201 13.151402 -0.221080 1.436856 -0.000003 0.000139 0.000005 27.922262 -26.077351 -11.590586 13.960935 3.247551 5.596137 13.625029 -0.722384 4.731891 0.000141 0.000012 0.000012 0.000000 0.000000 0.000000 0.000000 0.000000 0.000000 -86.684135 -0.261846 9.173075 -58.972103 23.341219 -3.101880 -0.939984 -17.030607 60.329506 -6.576722 0.340383 -9.413763 -12.044158 1.949558 39.253254 0.000005 0.000003 -29.350643 -0.000061 -0.000009 -20.430195 -0.000449 0.000004 0.001863 -23.164627 17.364578 -7.873898 -13.551819 -0.554467 3.450052 -13.748646 0.430565 3.229691 0.000008 0.000284 0.000016 -21.246511 7.147204 -8.960421 -13.508718 -0.846145 1.352008 -13.388767 0.146180 1.157304 0.001001 -0.000037 -0.000013 -20.876007 -9.152323 -9.503673 -14.733517 1.774141 -1.900605 -14.636772 -0.195506 -1.465038 0.000067 0.000013 -0.000001 -17.913528 -26.383417 -12.011460 -14.213962 3.403510 -5.189404 -14.204581 -0.565043 -4.376450 -0.000260 0.000009 -0.000046 0.000000 0.000000 0.000000 0.000000 0.000000 0.000000 -11.185957 4.327566 5.004210 -0.366240 -0.947914 18.693676 5.073525 -0.742778 17.163446 -1.154812 0.904334 -21.658882 0.000000 0.000000 0.000000 0.000000 0.000000 0.000000 0.000000 0.000000 0.000000 -2.300618 10.125820 11.281114 0.036755 0.401892 9.267560 3.374601 10.322501 17.686914 0.200070 -1.027038 -18.389267 0.000000 0.000000 0.000000 0.000000 0.000000 0.000000 0.000000 0.000000 0.000000 
